<svg width="223" height="117" viewBox="0 0 223 117" fill="none" xmlns="http://www.w3.org/2000/svg">
<path d="M6.84 87.76C5.18667 87.76 3.8 87.2 2.68 86.08C1.50667 85.0133 0.92 83.36 0.92 81.12C0.92 79.2 1.34667 77.1467 2.2 74.96C3.05333 72.72 4.22667 70.5333 5.72 68.4C7.21333 66.2133 8.89333 64.24 10.76 62.48C12.68 60.6667 14.68 59.2267 16.76 58.16C18.8933 57.0933 21 56.56 23.08 56.56C25.16 56.56 26.8933 57.12 28.28 58.24C29.6667 59.3067 30.36 60.7467 30.36 62.56C30.36 63.8933 29.9867 64.8 29.24 65.28C28.5467 65.76 27.6133 66 26.44 66C26.5467 65.5733 26.6267 65.12 26.68 64.64C26.7867 64.1067 26.84 63.6267 26.84 63.2C26.84 61.9733 26.5467 60.9333 25.96 60.08C25.3733 59.1733 24.36 58.72 22.92 58.72C21.4267 58.72 19.9067 59.2533 18.36 60.32C16.8133 61.3333 15.32 62.72 13.88 64.48C12.44 66.1867 11.16 68.0533 10.04 70.08C8.92 72.1067 8.04 74.1067 7.4 76.08C6.76 78.0533 6.44 79.8133 6.44 81.36C6.44 83.44 7.16 84.48 8.6 84.48C9.82667 84.48 11.16 83.92 12.6 82.8C14.04 81.6267 15.5067 80.16 17 78.4C18.5467 76.5867 20.0133 74.72 21.4 72.8C22.7867 70.88 24.0133 69.12 25.08 67.52C25.2933 67.2 25.4267 67.04 25.48 67.04C25.8 67.0933 26.2 67.2 26.68 67.36C27.2133 67.52 27.6667 67.7333 28.04 68C28.4133 68.2667 28.6 68.6133 28.6 69.04C28.6 69.52 28.36 70.1867 27.88 71.04C27.4 71.84 26.8667 72.7733 26.28 73.84C25.6933 74.9067 25.16 76 24.68 77.12C24.2 78.1867 23.96 79.2 23.96 80.16C23.96 80.96 24.1733 81.76 24.6 82.56C25.0267 83.3067 25.72 83.68 26.68 83.68C28.12 83.68 30.0133 82.64 32.36 80.56C34.7067 78.4267 37.08 75.2533 39.48 71.04L40.28 71.84C39.16 74.72 37.72 77.2533 35.96 79.44C34.2 81.6267 32.3067 83.3333 30.28 84.56C28.3067 85.7867 26.36 86.4 24.44 86.4C22.4667 86.4 21 85.8133 20.04 84.64C19.1333 83.4667 18.68 82.1867 18.68 80.8C18.68 80.48 18.7067 80.1333 18.76 79.76C18.8133 79.3333 18.8667 78.9067 18.92 78.48C16.6267 81.5733 14.52 83.8933 12.6 85.44C10.7333 86.9867 8.81333 87.76 6.84 87.76ZM63.6838 85.6C61.8171 85.6 60.4038 85.12 59.4438 84.16C58.5371 83.2 58.0838 81.9733 58.0838 80.48C58.0838 79.36 58.2704 78.1867 58.6438 76.96C59.0704 75.7333 59.4704 74.48 59.8438 73.2C60.2171 71.8667 60.4038 70.5867 60.4038 69.36C60.4038 67.8667 60.0838 66.8533 59.4438 66.32C58.8571 65.7333 58.1104 65.44 57.2038 65.44C55.5504 65.44 53.8704 66.1333 52.1638 67.52C50.4571 68.8533 48.8038 70.5867 47.2038 72.72C45.6038 74.8 44.1104 76.96 42.7238 79.2C41.3371 81.44 40.1104 83.44 39.0438 85.2C38.1904 85.2 37.3904 85.04 36.6437 84.72C35.8437 84.4533 35.2304 84.0267 34.8037 83.44C34.8037 83.1733 35.0971 82.3467 35.6837 80.96C36.2171 79.5733 36.8571 77.8667 37.6037 75.84C38.3504 73.8133 39.0171 71.7333 39.6038 69.6C40.1904 67.4667 40.4837 65.52 40.4837 63.76C40.8038 63.3867 41.3104 63.0133 42.0038 62.64C42.6971 62.2667 43.4171 62.08 44.1638 62.08C45.6038 62.08 46.3238 62.7733 46.3238 64.16C46.3238 65.0133 46.0838 66.4533 45.6038 68.48C45.1238 70.4533 44.5104 72.5333 43.7638 74.72C45.2038 72.5333 46.8038 70.3733 48.5638 68.24C50.3771 66.0533 52.2971 64.24 54.3238 62.8C56.3504 61.36 58.3771 60.64 60.4038 60.64C62.4838 60.64 63.9771 61.3867 64.8838 62.88C65.8438 64.3733 66.3238 66.0267 66.3238 67.84C66.3238 69.4933 66.0571 71.04 65.5238 72.48C64.9904 73.8667 64.4304 75.2267 63.8438 76.56C63.3104 77.84 63.0438 79.1467 63.0438 80.48C63.0438 81.6 63.2571 82.4 63.6838 82.88C64.1638 83.3067 64.7504 83.52 65.4438 83.52C66.7771 83.52 68.1104 82.9067 69.4438 81.68C70.7771 80.4 72.0571 78.8 73.2838 76.88C74.5638 74.96 75.6838 73.0133 76.6438 71.04L77.5238 72.08C76.4038 74.6933 75.1504 77.0133 73.7638 79.04C72.3771 81.0667 70.8571 82.6667 69.2038 83.84C67.5504 85.0133 65.7104 85.6 63.6838 85.6ZM80.8694 86.08C78.7894 86.08 77.2427 85.4133 76.2294 84.08C75.216 82.8 74.7094 81.2267 74.7094 79.36C74.7094 78.1333 74.9227 76.5867 75.3494 74.72C75.8294 72.8533 76.4427 70.9067 77.1894 68.88C77.936 66.8 78.7894 64.8533 79.7494 63.04C80.7627 61.2267 81.8294 59.76 82.9494 58.64C84.0694 57.4667 85.1627 56.88 86.2294 56.88C86.7094 56.88 87.1094 57.04 87.4294 57.36C87.8027 57.6267 87.9894 58.0533 87.9894 58.64C87.9894 59.28 87.5627 60.32 86.7094 61.76C85.9094 63.2 84.9494 64.8533 83.8294 66.72C82.7094 68.5867 81.7227 70.56 80.8694 72.64C80.0694 74.6667 79.6694 76.6133 79.6694 78.48C79.6694 80.4 79.9894 81.68 80.6294 82.32C81.2694 82.96 82.256 83.28 83.5894 83.28C85.4027 83.28 87.3227 82.3733 89.3494 80.56C91.4294 78.7467 93.616 75.5733 95.9094 71.04L96.6294 71.84C95.0827 76.4267 92.8427 79.9467 89.9094 82.4C87.0294 84.8533 84.016 86.08 80.8694 86.08ZM90.4694 49.44C89.616 49.44 88.8427 49.2267 88.1494 48.8C87.5094 48.3733 87.1894 47.7067 87.1894 46.8C87.1894 45.68 87.8294 44.72 89.1094 43.92C90.4427 43.0667 91.7494 42.64 93.0294 42.64C93.8294 42.64 94.4694 42.8267 94.9494 43.2C95.4294 43.5733 95.6694 44.2133 95.6694 45.12C95.6694 46.1333 95.1094 47.12 93.9894 48.08C92.9227 48.9867 91.7494 49.44 90.4694 49.44ZM101.206 87.68C98.9129 87.68 97.1529 87.0133 95.9263 85.68C94.6996 84.3467 94.0862 82.3733 94.0862 79.76C94.0862 77.4133 94.5129 74.5333 95.3663 71.12C96.2729 67.6533 97.3929 64.1067 98.7263 60.48C98.1929 60.3733 97.6863 60.2933 97.2063 60.24C96.7263 60.1333 96.2729 60 95.8463 59.84V58.4C96.2729 58.4533 96.7796 58.5067 97.3663 58.56C97.9529 58.6133 98.6196 58.6667 99.3663 58.72C100.486 55.84 101.686 53.0667 102.966 50.4C104.246 47.68 105.5 45.28 106.726 43.2C108.006 41.0667 109.206 39.3867 110.326 38.16C111.5 36.88 112.486 36.24 113.286 36.24C113.713 36.24 114.086 36.4 114.406 36.72C114.78 36.9867 114.966 37.4133 114.966 38C114.966 38.9067 114.406 40.4 113.286 42.48C112.166 44.5067 110.78 46.9333 109.126 49.76C107.473 52.5867 105.873 55.6533 104.326 58.96C104.806 58.96 105.286 58.96 105.766 58.96C106.3 58.96 106.806 58.96 107.286 58.96C109.046 58.96 110.886 58.9333 112.806 58.88C114.78 58.8267 116.753 58.6933 118.726 58.48V59.92C115.793 60.24 113.153 60.48 110.806 60.64C108.513 60.8 106.46 60.88 104.646 60.88C104.433 60.88 104.22 60.88 104.006 60.88C103.846 60.88 103.66 60.88 103.446 60.88C102.22 63.7067 101.18 66.6133 100.326 69.6C99.4729 72.5867 99.0463 75.4933 99.0463 78.32C99.0463 80.6133 99.3929 82.2667 100.086 83.28C100.78 84.24 101.926 84.72 103.526 84.72C106.3 84.72 109.02 83.4933 111.686 81.04C114.353 78.5867 116.7 75.2533 118.726 71.04L119.766 71.84C118.486 74.8267 116.86 77.52 114.886 79.92C112.966 82.32 110.833 84.2133 108.486 85.6C106.14 86.9867 103.713 87.68 101.206 87.68ZM106.019 106.4C104.685 106.4 103.672 106 102.979 105.2C102.232 104.453 101.859 103.493 101.859 102.32C101.859 100.347 102.819 98.1867 104.739 95.84C106.605 93.4933 109.005 91.4933 111.939 89.84C112.685 89.4133 113.485 89.0133 114.339 88.64C115.139 88.2667 116.045 87.8133 117.059 87.28C118.125 84.72 119.112 81.8133 120.019 78.56C120.925 75.2533 121.725 71.6 122.419 67.6C121.619 69.04 120.872 70.2933 120.179 71.36C119.539 72.4267 119.032 73.28 118.659 73.92L117.939 72.72C118.845 71.0667 119.645 69.3067 120.339 67.44C121.085 65.52 121.779 63.7067 122.419 62C123.112 60.2933 123.805 58.9067 124.499 57.84C125.192 56.7733 125.939 56.24 126.739 56.24C127.325 56.24 127.779 56.48 128.099 56.96C128.472 57.3867 128.659 57.9467 128.659 58.64C128.659 59.2267 128.499 60.3733 128.179 62.08C127.912 63.7333 127.485 65.7867 126.899 68.24C126.365 70.64 125.699 73.2533 124.899 76.08C124.099 78.9067 123.219 81.76 122.259 84.64C123.805 83.7333 125.352 82.8 126.899 81.84C128.445 80.88 129.992 79.6 131.539 78C133.139 76.4 134.685 74.2133 136.179 71.44L137.219 72C135.885 75.1467 134.285 77.6533 132.419 79.52C130.605 81.3333 128.739 82.7733 126.819 83.84C124.899 84.9067 123.112 85.92 121.459 86.88C120.285 90.1867 118.899 93.3333 117.299 96.32C115.752 99.3067 114.045 101.733 112.179 103.6C110.259 105.467 108.205 106.4 106.019 106.4ZM105.299 103.68C106.365 103.68 107.912 102.507 109.939 100.16C111.912 97.8667 113.939 94.4267 116.019 89.84C111.965 91.8133 108.952 93.8667 106.979 96C104.952 98.1333 103.939 100.053 103.939 101.76C103.939 102.453 104.072 102.933 104.339 103.2C104.605 103.52 104.925 103.68 105.299 103.68ZM128.019 49.04C127.165 49.04 126.419 48.8267 125.779 48.4C125.139 47.9733 124.819 47.3333 124.819 46.48C124.819 45.68 125.112 44.96 125.699 44.32C126.339 43.68 127.112 43.1733 128.019 42.8C128.925 42.4267 129.805 42.24 130.659 42.24C131.405 42.24 132.019 42.4267 132.499 42.8C133.032 43.1733 133.299 43.7333 133.299 44.48C133.299 45.6533 132.739 46.72 131.619 47.68C130.552 48.5867 129.352 49.04 128.019 49.04ZM138.401 87.04C137.387 87.04 136.587 86.1867 136.001 84.48C135.414 82.7733 135.121 80.8533 135.121 78.72C135.121 76.16 135.547 73.12 136.401 69.6C137.254 66.08 138.374 62.3733 139.761 58.48C141.147 54.5867 142.694 50.7733 144.401 47.04C146.161 43.3067 147.947 39.92 149.761 36.88C151.574 33.84 153.281 31.4133 154.881 29.6C156.481 27.7867 157.867 26.88 159.041 26.88C160.001 26.88 160.667 27.4667 161.041 28.64C161.467 29.76 161.681 30.8533 161.681 31.92C161.681 33.4133 161.334 35.2267 160.641 37.36C160.001 39.4933 159.094 41.7867 157.921 44.24C156.747 46.64 155.387 49.0133 153.841 51.36C152.294 53.7067 150.614 55.8667 148.801 57.84C146.987 59.76 145.147 61.28 143.281 62.4C142.641 63.9467 142.081 65.68 141.601 67.6C141.174 69.52 140.854 71.4133 140.641 73.28C140.427 75.0933 140.321 76.72 140.321 78.16C140.321 78.7467 140.321 79.2533 140.321 79.68C140.374 80.1067 140.427 80.5067 140.481 80.88C141.227 78.6933 142.027 76.5867 142.881 74.56C143.787 72.48 144.747 70.5867 145.761 68.88C146.774 67.12 147.841 65.6 148.961 64.32C150.134 62.9867 151.361 61.9733 152.641 61.28C153.921 60.5333 155.281 60.16 156.721 60.16C158.214 60.16 159.387 60.5333 160.241 61.28C161.147 61.9733 161.787 62.88 162.161 64C162.587 65.0667 162.801 66.1867 162.801 67.36C162.801 69.0133 162.507 70.6133 161.921 72.16C161.387 73.7067 160.827 75.2 160.241 76.64C159.654 78.08 159.361 79.4667 159.361 80.8C159.361 81.8667 159.574 82.64 160.001 83.12C160.481 83.6 161.067 83.84 161.761 83.84C162.987 83.84 164.347 83.2533 165.841 82.08C167.387 80.9067 168.907 79.36 170.401 77.44C171.894 75.4667 173.174 73.3333 174.241 71.04L175.281 72C174.161 74.6133 172.801 76.9867 171.201 79.12C169.601 81.2 167.841 82.8533 165.921 84.08C164.001 85.3067 162.001 85.92 159.921 85.92C158.107 85.92 156.721 85.44 155.761 84.48C154.854 83.52 154.401 82.32 154.401 80.88C154.401 79.76 154.614 78.5067 155.041 77.12C155.467 75.7333 155.867 74.32 156.241 72.88C156.667 71.44 156.881 70.08 156.881 68.8C156.881 67.4133 156.587 66.4267 156.001 65.84C155.414 65.2533 154.694 64.96 153.841 64.96C152.507 64.96 151.307 65.4933 150.241 66.56C149.174 67.6267 148.187 69.0133 147.281 70.72C146.427 72.3733 145.601 74.1333 144.801 76C144.054 77.8667 143.334 79.6533 142.641 81.36C141.947 83.0133 141.254 84.3733 140.561 85.44C139.867 86.5067 139.147 87.04 138.401 87.04ZM144.321 59.28C145.814 58.1067 147.254 56.6133 148.641 54.8C150.081 52.9867 151.414 51.0667 152.641 49.04C153.867 46.96 154.961 44.9333 155.921 42.96C156.881 40.9867 157.627 39.2 158.161 37.6C158.694 36 158.961 34.8 158.961 34C158.961 33.7333 158.934 33.5733 158.881 33.52C158.827 33.4133 158.747 33.36 158.641 33.36C158.267 33.36 157.494 34.1067 156.321 35.6C155.201 37.04 153.894 38.9867 152.401 41.44C150.907 43.8933 149.441 46.6667 148.001 49.76C146.561 52.8533 145.334 56.0267 144.321 59.28ZM176.528 87.76C174.874 87.76 173.488 87.2 172.367 86.08C171.194 85.0133 170.607 83.36 170.607 81.12C170.607 79.2 171.034 77.1467 171.887 74.96C172.741 72.72 173.914 70.5333 175.408 68.4C176.901 66.2133 178.581 64.24 180.448 62.48C182.368 60.6667 184.368 59.2267 186.448 58.16C188.581 57.0933 190.688 56.56 192.768 56.56C194.848 56.56 196.581 57.12 197.968 58.24C199.354 59.3067 200.048 60.7467 200.048 62.56C200.048 63.8933 199.674 64.8 198.928 65.28C198.234 65.76 197.301 66 196.128 66C196.234 65.5733 196.314 65.12 196.368 64.64C196.474 64.1067 196.528 63.6267 196.528 63.2C196.528 61.9733 196.234 60.9333 195.648 60.08C195.061 59.1733 194.048 58.72 192.608 58.72C191.114 58.72 189.594 59.2533 188.048 60.32C186.501 61.3333 185.008 62.72 183.568 64.48C182.128 66.1867 180.848 68.0533 179.728 70.08C178.608 72.1067 177.728 74.1067 177.088 76.08C176.448 78.0533 176.128 79.8133 176.128 81.36C176.128 83.44 176.848 84.48 178.288 84.48C179.514 84.48 180.848 83.92 182.288 82.8C183.728 81.6267 185.194 80.16 186.688 78.4C188.234 76.5867 189.701 74.72 191.088 72.8C192.474 70.88 193.701 69.12 194.768 67.52C194.981 67.2 195.114 67.04 195.168 67.04C195.488 67.0933 195.888 67.2 196.368 67.36C196.901 67.52 197.354 67.7333 197.728 68C198.101 68.2667 198.288 68.6133 198.288 69.04C198.288 69.52 198.048 70.1867 197.568 71.04C197.088 71.84 196.554 72.7733 195.968 73.84C195.381 74.9067 194.848 76 194.368 77.12C193.888 78.1867 193.648 79.2 193.648 80.16C193.648 80.96 193.861 81.76 194.288 82.56C194.714 83.3067 195.408 83.68 196.368 83.68C197.808 83.68 199.701 82.64 202.048 80.56C204.394 78.4267 206.768 75.2533 209.168 71.04L209.968 71.84C208.848 74.72 207.408 77.2533 205.648 79.44C203.888 81.6267 201.994 83.3333 199.968 84.56C197.994 85.7867 196.048 86.4 194.128 86.4C192.154 86.4 190.688 85.8133 189.728 84.64C188.821 83.4667 188.368 82.1867 188.368 80.8C188.368 80.48 188.394 80.1333 188.448 79.76C188.501 79.3333 188.554 78.9067 188.608 78.48C186.314 81.5733 184.208 83.8933 182.288 85.44C180.421 86.9867 178.501 87.76 176.528 87.76Z" fill="black"/>
<path d="M124 99C124.359 97.065 126.601 95.5854 130.726 94.561C134.851 93.5935 140.41 92.939 147.405 92.5976C154.489 92.1992 162.47 92 171.348 92C177.984 92 183.543 92.0854 188.027 92.2561C192.601 92.3699 196.636 92.5407 200.133 92.7683C203.63 92.939 207.128 93.1098 210.625 93.2805C214.212 93.4512 218.337 93.5366 223 93.5366C219.323 95.1301 215.467 96.1545 211.432 96.6098C207.397 97.122 203.944 97.378 201.075 97.378C192.287 97.378 184.799 97.378 178.611 97.378C172.424 97.435 167.133 97.4634 162.739 97.4634C158.435 97.4634 154.668 97.4919 151.44 97.5488C148.929 97.6057 146.598 97.6626 144.446 97.7195C142.383 97.7764 140.321 97.8618 138.258 97.9756C136.196 98.0894 133.999 98.2317 131.667 98.4024C129.425 98.5732 126.87 98.7724 124 99Z" fill="black"/>
</svg>
