<!-- Generated by IcoMoon.io -->
<svg version="1.1" xmlns="http://www.w3.org/2000/svg" width="45" height="32" viewBox="0 0 45 32">
<title>Full-Logo</title>
<path d="M1.394 26.040c-0.337 0-0.62-0.114-0.848-0.342-0.239-0.217-0.359-0.554-0.359-1.011 0-0.391 0.087-0.81 0.261-1.256 0.174-0.457 0.413-0.902 0.717-1.337 0.304-0.446 0.647-0.848 1.027-1.207 0.391-0.37 0.799-0.663 1.223-0.881 0.435-0.217 0.864-0.326 1.288-0.326s0.777 0.114 1.060 0.342c0.283 0.217 0.424 0.511 0.424 0.881 0 0.272-0.076 0.457-0.228 0.554-0.141 0.098-0.332 0.147-0.571 0.147 0.022-0.087 0.038-0.179 0.049-0.277 0.022-0.109 0.033-0.206 0.033-0.294 0-0.25-0.060-0.462-0.179-0.636-0.12-0.185-0.326-0.277-0.62-0.277-0.304 0-0.614 0.109-0.929 0.326-0.315 0.206-0.62 0.489-0.913 0.848-0.293 0.348-0.554 0.728-0.783 1.141s-0.408 0.821-0.538 1.223c-0.13 0.402-0.196 0.761-0.196 1.076 0 0.424 0.147 0.636 0.44 0.636 0.25 0 0.522-0.114 0.815-0.342 0.293-0.239 0.592-0.538 0.897-0.897 0.315-0.37 0.614-0.75 0.897-1.141s0.533-0.75 0.75-1.076c0.043-0.065 0.071-0.098 0.082-0.098 0.065 0.011 0.147 0.033 0.245 0.065 0.109 0.033 0.201 0.076 0.277 0.13s0.114 0.125 0.114 0.212c0 0.098-0.049 0.234-0.147 0.408-0.098 0.163-0.207 0.353-0.326 0.571s-0.228 0.44-0.326 0.669c-0.098 0.217-0.147 0.424-0.147 0.62 0 0.163 0.043 0.326 0.13 0.489 0.087 0.152 0.228 0.228 0.424 0.228 0.293 0 0.679-0.212 1.158-0.636 0.478-0.435 0.962-1.082 1.451-1.94l0.163 0.163c-0.228 0.587-0.522 1.103-0.88 1.549s-0.745 0.793-1.158 1.044c-0.402 0.25-0.799 0.375-1.19 0.375-0.402 0-0.701-0.12-0.897-0.359-0.185-0.239-0.277-0.5-0.277-0.783 0-0.065 0.005-0.136 0.016-0.212 0.011-0.087 0.022-0.174 0.033-0.261-0.467 0.63-0.897 1.103-1.288 1.419-0.38 0.315-0.772 0.473-1.174 0.473zM12.98 25.6c-0.38 0-0.669-0.098-0.864-0.294-0.185-0.196-0.277-0.446-0.277-0.75 0-0.228 0.038-0.467 0.114-0.717 0.087-0.25 0.168-0.505 0.245-0.766 0.076-0.272 0.114-0.533 0.114-0.783 0-0.304-0.065-0.511-0.196-0.62-0.12-0.12-0.272-0.179-0.457-0.179-0.337 0-0.679 0.141-1.027 0.424-0.348 0.272-0.685 0.625-1.011 1.060-0.326 0.424-0.63 0.864-0.913 1.321s-0.533 0.864-0.75 1.223c-0.174 0-0.337-0.033-0.489-0.098-0.163-0.054-0.288-0.141-0.375-0.261 0-0.054 0.060-0.223 0.179-0.505 0.109-0.283 0.239-0.63 0.391-1.044s0.288-0.837 0.408-1.272c0.12-0.435 0.179-0.832 0.179-1.19 0.065-0.076 0.168-0.152 0.31-0.228s0.288-0.114 0.44-0.114c0.293 0 0.44 0.141 0.44 0.424 0 0.174-0.049 0.467-0.147 0.881-0.098 0.402-0.223 0.826-0.375 1.272 0.293-0.446 0.62-0.886 0.978-1.321 0.37-0.446 0.761-0.815 1.174-1.109s0.826-0.44 1.239-0.44c0.424 0 0.728 0.152 0.913 0.457 0.196 0.304 0.293 0.641 0.293 1.011 0 0.337-0.054 0.652-0.163 0.946-0.109 0.283-0.223 0.56-0.342 0.832-0.109 0.261-0.163 0.527-0.163 0.799 0 0.228 0.043 0.391 0.13 0.489 0.098 0.087 0.217 0.13 0.359 0.13 0.272 0 0.543-0.125 0.815-0.375 0.272-0.261 0.533-0.587 0.783-0.978 0.261-0.391 0.489-0.788 0.685-1.19l0.179 0.212c-0.228 0.533-0.484 1.005-0.766 1.419s-0.592 0.739-0.929 0.978c-0.337 0.239-0.712 0.359-1.125 0.359zM16.483 25.698c-0.424 0-0.739-0.136-0.946-0.408-0.207-0.261-0.31-0.581-0.31-0.962 0-0.25 0.043-0.565 0.13-0.946 0.098-0.381 0.223-0.777 0.375-1.19 0.152-0.424 0.326-0.821 0.522-1.19 0.207-0.37 0.424-0.669 0.652-0.897 0.228-0.239 0.451-0.359 0.669-0.359 0.098 0 0.179 0.033 0.245 0.098 0.076 0.054 0.114 0.141 0.114 0.261 0 0.13-0.087 0.342-0.261 0.636-0.163 0.294-0.359 0.63-0.587 1.011s-0.429 0.783-0.603 1.207c-0.163 0.413-0.245 0.81-0.245 1.19 0 0.391 0.065 0.652 0.196 0.783s0.332 0.196 0.603 0.196c0.37 0 0.761-0.185 1.174-0.554 0.424-0.37 0.87-1.016 1.337-1.94l0.147 0.163c-0.315 0.935-0.772 1.652-1.37 2.152-0.587 0.5-1.201 0.75-1.843 0.75zM18.44 18.23c-0.174 0-0.332-0.043-0.473-0.13-0.13-0.087-0.196-0.223-0.196-0.408 0-0.228 0.13-0.424 0.391-0.587 0.272-0.174 0.538-0.261 0.799-0.261 0.163 0 0.294 0.038 0.391 0.114s0.147 0.207 0.147 0.391c0 0.207-0.114 0.408-0.342 0.603-0.217 0.185-0.457 0.277-0.717 0.277zM20.628 26.024c-0.467 0-0.826-0.136-1.076-0.408s-0.375-0.674-0.375-1.207c0-0.478 0.087-1.065 0.261-1.761 0.185-0.707 0.413-1.429 0.685-2.169-0.109-0.022-0.212-0.038-0.31-0.049-0.098-0.022-0.19-0.049-0.277-0.082v-0.294c0.087 0.011 0.19 0.022 0.31 0.033s0.255 0.022 0.408 0.033c0.228-0.587 0.473-1.152 0.734-1.696 0.261-0.554 0.516-1.044 0.766-1.468 0.261-0.435 0.505-0.777 0.734-1.027 0.239-0.261 0.44-0.391 0.603-0.391 0.087 0 0.163 0.033 0.228 0.098 0.076 0.054 0.114 0.141 0.114 0.261 0 0.185-0.114 0.489-0.342 0.913-0.228 0.413-0.511 0.908-0.848 1.484s-0.663 1.201-0.978 1.875c0.098 0 0.196 0 0.294 0 0.109 0 0.212 0 0.31 0 0.359 0 0.734-0.005 1.125-0.016 0.402-0.011 0.804-0.038 1.207-0.082v0.294c-0.598 0.065-1.136 0.114-1.614 0.147-0.467 0.033-0.886 0.049-1.256 0.049-0.043 0-0.087 0-0.13 0-0.033 0-0.071 0-0.114 0-0.25 0.576-0.462 1.169-0.636 1.777s-0.261 1.201-0.261 1.777c0 0.467 0.071 0.804 0.212 1.011 0.141 0.196 0.375 0.294 0.701 0.294 0.565 0 1.12-0.25 1.663-0.75s1.022-1.18 1.435-2.038l0.212 0.163c-0.261 0.609-0.592 1.158-0.995 1.647-0.391 0.489-0.826 0.875-1.304 1.158s-0.973 0.424-1.484 0.424zM21.609 29.84c-0.272 0-0.478-0.082-0.62-0.245-0.152-0.152-0.228-0.348-0.228-0.587 0-0.402 0.196-0.842 0.587-1.321 0.38-0.478 0.869-0.886 1.468-1.223 0.152-0.087 0.315-0.169 0.489-0.245 0.163-0.076 0.348-0.169 0.554-0.277 0.217-0.522 0.418-1.114 0.603-1.777 0.185-0.674 0.348-1.419 0.489-2.234-0.163 0.294-0.315 0.549-0.457 0.766-0.13 0.217-0.234 0.391-0.31 0.522l-0.147-0.245c0.185-0.337 0.348-0.696 0.489-1.076 0.152-0.391 0.294-0.761 0.424-1.109 0.141-0.348 0.282-0.63 0.424-0.848s0.294-0.326 0.457-0.326c0.119 0 0.212 0.049 0.277 0.147 0.076 0.087 0.114 0.201 0.114 0.342 0 0.12-0.033 0.353-0.098 0.701-0.054 0.337-0.141 0.756-0.261 1.256-0.109 0.489-0.245 1.022-0.408 1.598s-0.342 1.158-0.538 1.745c0.315-0.185 0.63-0.375 0.946-0.571s0.63-0.457 0.946-0.783c0.326-0.326 0.641-0.772 0.946-1.337l0.212 0.114c-0.272 0.641-0.598 1.152-0.978 1.533-0.37 0.37-0.75 0.663-1.141 0.881s-0.756 0.424-1.092 0.62c-0.239 0.674-0.522 1.315-0.848 1.924-0.315 0.609-0.663 1.103-1.044 1.484-0.391 0.381-0.81 0.571-1.256 0.571zM21.462 29.285c0.217 0 0.533-0.239 0.946-0.717 0.402-0.467 0.815-1.169 1.239-2.103-0.826 0.402-1.44 0.821-1.843 1.256-0.413 0.435-0.62 0.826-0.62 1.174 0 0.141 0.027 0.239 0.082 0.294 0.054 0.065 0.119 0.098 0.196 0.098zM26.093 18.148c-0.174 0-0.326-0.043-0.457-0.13s-0.196-0.217-0.196-0.391c0-0.163 0.060-0.31 0.179-0.44 0.13-0.13 0.288-0.234 0.473-0.31s0.364-0.114 0.538-0.114c0.152 0 0.277 0.038 0.375 0.114 0.109 0.076 0.163 0.19 0.163 0.342 0 0.239-0.114 0.457-0.342 0.652-0.217 0.185-0.462 0.277-0.734 0.277zM28.209 25.893c-0.207 0-0.37-0.174-0.489-0.522s-0.179-0.739-0.179-1.174c0-0.522 0.087-1.141 0.261-1.859s0.402-1.473 0.685-2.267c0.282-0.794 0.598-1.571 0.946-2.332 0.359-0.761 0.723-1.451 1.092-2.071s0.717-1.114 1.044-1.484 0.609-0.554 0.848-0.554c0.196 0 0.331 0.12 0.408 0.359 0.087 0.228 0.13 0.451 0.13 0.669 0 0.304-0.071 0.674-0.212 1.109-0.13 0.435-0.315 0.902-0.554 1.402-0.239 0.489-0.516 0.973-0.832 1.451s-0.658 0.919-1.027 1.321c-0.37 0.391-0.745 0.701-1.125 0.929-0.13 0.315-0.245 0.669-0.342 1.060-0.087 0.391-0.152 0.777-0.196 1.158-0.044 0.37-0.065 0.701-0.065 0.995 0 0.12 0 0.223 0 0.31 0.011 0.087 0.022 0.169 0.033 0.245 0.152-0.446 0.315-0.875 0.489-1.288 0.185-0.424 0.38-0.81 0.587-1.158 0.206-0.359 0.424-0.669 0.652-0.929 0.239-0.272 0.489-0.478 0.75-0.62 0.261-0.152 0.538-0.228 0.832-0.228 0.304 0 0.543 0.076 0.717 0.228 0.185 0.141 0.315 0.326 0.391 0.554 0.087 0.217 0.13 0.446 0.13 0.685 0 0.337-0.060 0.663-0.179 0.978-0.109 0.315-0.223 0.62-0.342 0.913s-0.179 0.576-0.179 0.848c0 0.217 0.043 0.375 0.13 0.473 0.098 0.098 0.217 0.147 0.359 0.147 0.25 0 0.527-0.12 0.832-0.359 0.315-0.239 0.625-0.554 0.929-0.946 0.304-0.402 0.565-0.837 0.783-1.304l0.212 0.196c-0.228 0.533-0.505 1.016-0.832 1.451-0.326 0.424-0.685 0.761-1.076 1.011s-0.799 0.375-1.223 0.375c-0.37 0-0.652-0.098-0.848-0.294-0.185-0.196-0.277-0.44-0.277-0.734 0-0.228 0.043-0.484 0.13-0.766s0.168-0.571 0.245-0.864c0.087-0.294 0.13-0.571 0.13-0.832 0-0.283-0.060-0.484-0.179-0.603s-0.266-0.179-0.44-0.179c-0.272 0-0.516 0.109-0.734 0.326s-0.419 0.5-0.603 0.848c-0.174 0.337-0.342 0.696-0.505 1.076-0.152 0.381-0.299 0.745-0.44 1.092-0.141 0.337-0.283 0.614-0.424 0.832s-0.288 0.326-0.44 0.326zM29.416 20.235c0.304-0.239 0.598-0.544 0.881-0.913 0.294-0.37 0.565-0.761 0.815-1.174 0.25-0.424 0.473-0.837 0.669-1.239s0.348-0.766 0.457-1.092c0.109-0.326 0.163-0.571 0.163-0.734 0-0.054-0.005-0.087-0.016-0.098-0.011-0.022-0.027-0.033-0.049-0.033-0.076 0-0.234 0.152-0.473 0.457-0.228 0.293-0.495 0.69-0.799 1.19s-0.603 1.065-0.897 1.696-0.544 1.277-0.75 1.94zM35.98 26.040c-0.337 0-0.62-0.114-0.848-0.342-0.239-0.217-0.359-0.554-0.359-1.011 0-0.391 0.087-0.81 0.261-1.256 0.174-0.457 0.413-0.902 0.718-1.337 0.304-0.446 0.647-0.848 1.027-1.207 0.391-0.37 0.799-0.663 1.223-0.881 0.435-0.217 0.864-0.326 1.288-0.326s0.777 0.114 1.060 0.342c0.282 0.217 0.424 0.511 0.424 0.881 0 0.272-0.076 0.457-0.228 0.554-0.141 0.098-0.332 0.147-0.571 0.147 0.022-0.087 0.038-0.179 0.049-0.277 0.022-0.109 0.033-0.206 0.033-0.294 0-0.25-0.060-0.462-0.179-0.636-0.12-0.185-0.326-0.277-0.62-0.277-0.304 0-0.614 0.109-0.929 0.326-0.315 0.206-0.62 0.489-0.913 0.848-0.294 0.348-0.554 0.728-0.783 1.141s-0.408 0.821-0.538 1.223c-0.13 0.402-0.196 0.761-0.196 1.076 0 0.424 0.147 0.636 0.44 0.636 0.25 0 0.522-0.114 0.815-0.342 0.294-0.239 0.592-0.538 0.897-0.897 0.315-0.37 0.614-0.75 0.897-1.141s0.533-0.75 0.75-1.076c0.043-0.065 0.071-0.098 0.082-0.098 0.065 0.011 0.147 0.033 0.245 0.065 0.109 0.033 0.201 0.076 0.277 0.13s0.114 0.125 0.114 0.212c0 0.098-0.049 0.234-0.147 0.408-0.098 0.163-0.207 0.353-0.326 0.571s-0.228 0.44-0.326 0.669c-0.098 0.217-0.147 0.424-0.147 0.62 0 0.163 0.043 0.326 0.13 0.489 0.087 0.152 0.228 0.228 0.424 0.228 0.294 0 0.679-0.212 1.158-0.636 0.478-0.435 0.962-1.082 1.451-1.94l0.163 0.163c-0.228 0.587-0.522 1.103-0.88 1.549s-0.745 0.793-1.158 1.044c-0.402 0.25-0.799 0.375-1.19 0.375-0.402 0-0.701-0.12-0.897-0.359-0.185-0.239-0.277-0.5-0.277-0.783 0-0.065 0.005-0.136 0.016-0.212 0.011-0.087 0.022-0.174 0.033-0.261-0.468 0.63-0.897 1.103-1.288 1.419-0.381 0.315-0.772 0.473-1.174 0.473z"></path>
<path d="M25.274 28.331c0.073-0.394 0.53-0.696 1.371-0.905 0.841-0.197 1.974-0.331 3.4-0.4 1.444-0.081 3.071-0.122 4.88-0.122 1.353 0 2.486 0.017 3.4 0.052 0.932 0.023 1.755 0.058 2.467 0.104 0.713 0.035 1.426 0.070 2.139 0.104 0.731 0.035 1.572 0.052 2.522 0.052-0.749 0.325-1.535 0.533-2.358 0.626-0.822 0.104-1.526 0.157-2.111 0.157-1.791 0-3.317 0-4.579 0-1.261 0.012-2.339 0.017-3.235 0.017-0.877 0-1.645 0.006-2.303 0.018-0.512 0.012-0.987 0.023-1.426 0.035-0.42 0.011-0.841 0.029-1.261 0.052s-0.868 0.052-1.343 0.087c-0.457 0.035-0.978 0.075-1.563 0.122z"></path>
<path d="M21.192 0.218l-4.884 7.319h2.616l2.268-3.465 0.807 1.183 1.28-1.92-2.087-3.117z"></path>
<path d="M15.376 8.942l-0.904 1.378c1.855 0.005 5.786 0.014 6.665 0.014s1.646-0.826 1.92-1.238l0.752-1.085c0.162 0.255 0.609 0.918 1.099 1.531s1.28 0.784 1.614 0.793h1.433l-2.852-4.314 3.84-5.816h-6.025l0.918 1.391h1.614c-1.41 2.115-4.294 6.443-4.55 6.832s-0.728 0.506-0.932 0.515h-4.592z"></path>
</svg>
