<!-- Generated by IcoMoon.io -->
<svg version="1.1" xmlns="http://www.w3.org/2000/svg" width="46" height="32" viewBox="0 0 46 32">
<title>logo</title>
<path stroke-linejoin="miter" stroke-linecap="butt" stroke-miterlimit="4" stroke-width="0.4848" stroke="#000" fill="#000" d="M21.201 0.528l-15.055 22.56h8.063l6.991-10.68 2.488 3.646 3.946-5.919-6.434-9.607z"></path>
<path stroke-linejoin="miter" stroke-linecap="butt" stroke-miterlimit="4" stroke-width="0.4848" stroke="#000" fill="#000" d="M3.273 27.42l-2.788 4.246c5.719 0.014 17.834 0.043 20.545 0.043s5.075-2.545 5.919-3.817l2.316-3.345c0.5 0.786 1.879 2.831 3.388 4.718s3.946 2.416 4.975 2.445h4.418l-8.793-13.296 11.838-17.928h-18.572l2.831 4.289h4.975c-4.346 6.519-13.236 19.858-14.025 21.059s-2.245 1.558-2.874 1.587h-14.154z"></path>
</svg>
