<svg width="241" height="241" viewBox="0 0 241 241" fill="none" xmlns="http://www.w3.org/2000/svg">
<rect width="241" height="241" rx="52" fill="white"/>
<path d="M64 45.5L8.5 102.5L11 105.5L16 108.5L18.5 110.5L23 112L28.5 112.5H36L42.5 111L49.5 107.5L83 73.5L141 136.5L142 138L143.5 142V146L143 151L141.5 156.5L138 161.5L133.5 165.5L129.5 168.5L126.5 170H121.5H119.5H117.5L115 169L113 168.5L109.5 167L107 165.5L105 163.5L103.5 162L102 160L100.5 157L98.5 154L98 151V148V146L98.5 142L99.5 139.5L100.5 136L102.5 133.5L104 131.5L105.5 129L83 105.5L78 111L74.5 116.5L70.5 122.5L66.5 131.5L65 139V149V153V155.5L69 169L75.5 180L83 188.5L99 199L114 203H124L134.5 201.5L145.5 197L154 193L160.5 187L167.5 178L171.5 171.5L174.5 163L176 156.5V151.5V144V138L174 129.5L170 121L165.5 114.5L104 47L103 45.5L101 44L99.5 43L97 41.5L94.5 40.5L93 39.5L90 39L88 38.5H86L83 38H81H79L76.5 38.5L75 39L73 39.5L71 40.5L69 41.5L67.5 42.5L65.5 44L64 45.5Z" fill="#252525" stroke="white" stroke-width="2"/>
<path d="M190.5 108L136.5 49L135.5 47.5L137.5 46L141 43.5L144.5 41.5L149.5 39.5L154.5 38H160.5L167 39.5L173.5 42.5L178.5 46L232.5 105.5L230.5 108L226 110.5L222 113L215.5 115H210L201 113.5L194.5 110.5L190.5 108Z" fill="#252525" stroke="white" stroke-width="2"/>
</svg>
